<svg width="200" height="222" viewBox="0 0 200 222" fill="none" xmlns="http://www.w3.org/2000/svg">
<g filter="url(#filter0_i)">
<path d="M159.345 31.1816C158.523 30.5644 158.281 29.4304 158.798 28.5422L166.756 14.8708C168.985 11.0418 167.677 6.13068 163.84 3.91672L160.565 2.02728C156.718 -0.192121 151.799 1.14687 149.608 5.01004L141.903 18.5956C141.394 19.4923 140.288 19.8537 139.34 19.4488C127.205 14.2655 113.886 11.24 99.962 11.24C45.016 11.24 0 55.925 0 111.202C0 143.983 15.9127 172.945 40.2484 191.222C41.0702 191.84 41.3122 192.974 40.7951 193.862L32.8371 207.533C30.6084 211.362 31.9158 216.273 35.7533 218.487L39.0284 220.377C42.8753 222.596 47.7938 221.257 49.9848 217.394L57.6901 203.808C58.1987 202.912 59.3045 202.55 60.2526 202.955C72.3879 208.138 85.7069 211.164 99.631 211.164C154.577 211.164 199.593 166.479 199.593 111.202C199.593 78.421 183.68 49.4591 159.345 31.1816ZM19.529 111.202C19.529 67.179 55.277 31.1 99.631 31.1C109.755 31.1 119.596 33.0906 128.624 36.5447C129.753 36.9767 130.207 38.3187 129.602 39.3654L52.4396 172.792C51.8372 173.834 50.4567 174.113 49.5185 173.36C31.3305 158.754 19.529 136.531 19.529 111.202ZM99.631 191.304C89.5065 191.304 79.6664 189.313 70.6379 185.859C69.5086 185.427 69.0546 184.085 69.6599 183.039L146.822 49.6119C147.425 48.5702 148.805 48.2911 149.743 49.0451C167.931 63.6698 179.733 86.2038 179.733 111.533C179.733 155.225 143.654 191.304 99.631 191.304Z" fill="#828282"/>
</g>
<defs>
<filter id="filter0_i" x="0" y="0.955383" width="199.593" height="224.493" filterUnits="userSpaceOnUse" color-interpolation-filters="sRGB">
<feFlood flood-opacity="0" result="BackgroundImageFix"/>
<feBlend mode="normal" in="SourceGraphic" in2="BackgroundImageFix" result="shape"/>
<feColorMatrix in="SourceAlpha" type="matrix" values="0 0 0 0 0 0 0 0 0 0 0 0 0 0 0 0 0 0 127 0" result="hardAlpha"/>
<feOffset dy="4"/>
<feGaussianBlur stdDeviation="2"/>
<feComposite in2="hardAlpha" operator="arithmetic" k2="-1" k3="1"/>
<feColorMatrix type="matrix" values="0 0 0 0 0 0 0 0 0 0 0 0 0 0 0 0 0 0 0.25 0"/>
<feBlend mode="normal" in2="shape" result="effect1_innerShadow"/>
</filter>
</defs>
</svg>
